<?xml version="1.0" standalone="no"?>
<!DOCTYPE svg PUBLIC "-//W3C//DTD SVG 20010904//EN"
 "http://www.w3.org/TR/2001/REC-SVG-20010904/DTD/svg10.dtd">
<svg version="1.0" xmlns="http://www.w3.org/2000/svg"
 width="1000.000000pt" height="1000.000000pt" viewBox="0 0 1000.000000 1000.000000"
 preserveAspectRatio="xMidYMid meet">
<metadata>
Created by potrace 1.11, written by Peter Selinger 2001-2013
</metadata>
<g transform="translate(0.000000,1000.000000) scale(0.100000,-0.100000)"
fill="#000000" stroke="none">
<path d="M4870 8989 c-2648 -373 -4818 -678 -4821 -679 -8 0 -19 -3418 -19
-5864 l0 -1999 113 -62 c63 -33 118 -60 123 -58 5 1 2186 309 4848 682 2661
374 4840 682 4842 684 3 2 8 1771 12 3931 l7 3927 -111 60 c-78 41 -122 59
-145 58 -19 -1 -2201 -307 -4849 -680z m925 -1621 c85 -18 165 -66 243 -143
67 -68 72 -76 72 -116 0 -23 -39 -279 -86 -568 -174 -1071 -214 -1327 -214
-1365 0 -208 222 -298 384 -156 58 52 83 104 106 225 20 107 260 1587 260
1606 0 20 37 6 193 -74 708 -360 1180 -944 1426 -1763 76 -254 115 -485 132
-779 6 -125 13 -184 23 -193 10 -11 26 -11 81 -1 303 52 544 -192 496 -504
-42 -271 -205 -455 -451 -506 -30 -6 -1547 -221 -3370 -477 -3664 -514 -3426
-486 -3550 -428 -83 39 -141 98 -185 188 -72 148 -67 320 15 482 92 181 236
288 423 314 108 15 112 23 120 201 17 408 124 896 284 1299 149 375 344 710
599 1030 129 161 393 432 557 574 117 99 308 248 314 243 1 -2 63 -369 138
-816 74 -447 142 -825 150 -840 31 -61 123 -121 186 -121 50 0 125 35 174 81
71 67 97 129 96 228 -1 47 -56 407 -146 951 -89 537 -143 887 -139 905 16 80
168 250 284 318 107 62 195 83 610 142 634 90 649 91 775 63z"/>
</g>
</svg>
